<svg xmlns="http://www.w3.org/2000/svg" width="1400" height="700" viewBox="0 0 1400 700">
  <defs>
    <linearGradient id="gA" x1="0" y1="0" x2="1" y2="1">
      <stop offset="0" stop-color="#ffecd2" />
      <stop offset="1" stop-color="#fcb69f" />
    </linearGradient>
  </defs>
  <rect width="100%" height="100%" fill="url(#gA)" />
  <g transform="translate(80,120)" fill="#1f2937" opacity="0.12">
    <rect x="0" y="160" rx="12" ry="12" width="460" height="220" />
    <rect x="540" y="40" rx="12" ry="12" width="320" height="340" />
    <rect x="920" y="120" rx="12" ry="12" width="320" height="260" />
  </g>
  <g fill="#ffffff" opacity="0.85">
    <g transform="translate(110,200)">
      <rect width="220" height="140" rx="10" ry="10" fill="#fff" />
      <rect x="12" y="12" width="120" height="24" rx="6" fill="#f3f4f6" />
      <rect x="12" y="44" width="170" height="12" rx="6" fill="#f3f4f6" />
      <rect x="12" y="70" width="160" height="12" rx="6" fill="#f3f4f6" />
    </g>

    <g transform="translate(540,60)">
      <rect width="280" height="220" rx="14" ry="14" fill="#fff" />
      <rect x="22" y="18" width="160" height="20" rx="8" fill="#f3f4f6" />
      <rect x="22" y="52" width="88" height="88" rx="8" fill="#f3f4f6" />
      <rect x="22" y="152" width="200" height="14" rx="6" fill="#f3f4f6" />
    </g>

    <g transform="translate(920,140)">
      <rect width="260" height="160" rx="10" ry="10" fill="#fff" />
      <rect x="16" y="16" width="120" height="18" rx="6" fill="#f3f4f6" />
      <rect x="16" y="44" width="224" height="12" rx="6" fill="#f3f4f6" />
    </g>
  </g>
</svg>
